# xmcd
#
# Track frame offsets:
#	150
#	12284
#	32026
#	44105
#	75144
#	92332
#	103536
#	116611
#	130265
#	149037
#	161687
#	174241
#	186910
#	203439
#	217039
#	234425
#	246900
#	257800
#
# Disc length: 3795 seconds
#
# Revision: 0
# Processed by: cddbd v1.4PL0 Copyright (c) Steve Scherf et al.
# Submitted via: EasyCDDAExtractor 4.6.9.1
#
DISCID=f20ed112
DTITLE=Various Artist - ROSE CD 03(R&B, SOUL HITS)
DYEAR=1900
DGENRE=R&B, SOUL
TTITLE0=Only You
TTITLE1=Stop In The Name Of Love
TTITLE2=Think Twice
TTITLE3=Georgia On My Mind
TTITLE4=I Can't Stop Loving You
TTITLE5=I Who Have Nothing
TTITLE6=Let It Be Me
TTITLE7=When A Man Loves A Woman
TTITLE8=Everytime You Go Away
TTITLE9=Under The Broadwalk
TTITLE10=When Will I See You Again
TTITLE11=My Praye
TTITLE12=If You Don't Know Me By Now
TTITLE13=Spanish Harlem
TTITLE14=A Rainy Night In Georgia
TTITLE15=Tell It Like It Is
TTITLE16=Sitting On The Top Of The World
TTITLE17=Na Na Hey Hey
EXTD=
EXTT0=
EXTT1=
EXTT2=
EXTT3=
EXTT4=
EXTT5=
EXTT6=
EXTT7=
EXTT8=
EXTT9=
EXTT10=
EXTT11=
EXTT12=
EXTT13=
EXTT14=
EXTT15=
EXTT16=
EXTT17=
PLAYORDER=
